<mxfile host="app.diagrams.net" agent="Mozilla/5.0 (Macintosh; Intel Mac OS X 10_15_7) AppleWebKit/537.36 (KHTML, like Gecko) Chrome/132.0.0.0 Safari/537.36" version="26.0.9">
  <diagram name="Page-1" id="5f0bae14-7c28-e335-631c-24af17079c00">
    <mxGraphModel dx="1272" dy="1666" grid="1" gridSize="10" guides="1" tooltips="1" connect="1" arrows="1" fold="1" page="1" pageScale="1" pageWidth="1100" pageHeight="850" background="none" math="0" shadow="0">
      <root>
        <mxCell id="0" />
        <mxCell id="1" parent="0" />
        <mxCell id="39150e848f15840c-1" value="Capa de Presentacion" style="verticalAlign=top;align=left;spacingTop=8;spacingLeft=2;spacingRight=12;shape=cube;size=10;direction=south;fontStyle=4;html=1;rounded=0;shadow=0;comic=0;labelBackgroundColor=none;strokeWidth=1;fontFamily=Verdana;fontSize=12" parent="1" vertex="1">
          <mxGeometry x="40" y="50" width="1010" height="400" as="geometry" />
        </mxCell>
        <mxCell id="39150e848f15840c-3" value="Capa Logica" style="verticalAlign=top;align=left;spacingTop=8;spacingLeft=2;spacingRight=12;shape=cube;size=10;direction=south;fontStyle=4;html=1;rounded=0;shadow=0;comic=0;labelBackgroundColor=none;strokeWidth=1;fontFamily=Verdana;fontSize=12" parent="1" vertex="1">
          <mxGeometry x="40" y="630" width="740" height="240" as="geometry" />
        </mxCell>
        <mxCell id="39150e848f15840c-5" value="" style="shape=component;align=center;spacingLeft=36;rounded=0;shadow=0;comic=0;labelBackgroundColor=none;strokeWidth=1;fontFamily=Verdana;fontSize=12;html=1;" parent="1" vertex="1">
          <mxGeometry x="50" y="120" width="220" height="310" as="geometry" />
        </mxCell>
        <mxCell id="39150e848f15840c-10" value="Conector&amp;nbsp;&lt;span style=&quot;background-color: transparent; color: light-dark(rgb(0, 0, 0), rgb(255, 255, 255));&quot;&gt;de&amp;nbsp;&lt;/span&gt;&lt;div&gt;&lt;span style=&quot;background-color: transparent; color: light-dark(rgb(0, 0, 0), rgb(255, 255, 255));&quot;&gt;Base de Datos&lt;/span&gt;&lt;/div&gt;" style="shape=component;align=left;spacingLeft=36;rounded=0;shadow=0;comic=0;labelBackgroundColor=none;strokeWidth=1;fontFamily=Verdana;fontSize=12;html=1;" parent="1" vertex="1">
          <mxGeometry x="70" y="695" width="130" height="60" as="geometry" />
        </mxCell>
        <mxCell id="85mbKeTlbgZdNK4Qw56P-37" style="edgeStyle=none;rounded=0;html=1;dashed=1;labelBackgroundColor=none;startArrow=none;startFill=0;startSize=8;endArrow=open;endFill=0;endSize=6;fontFamily=Verdana;fontSize=12;entryX=0.5;entryY=0;entryDx=0;entryDy=0;" parent="1" edge="1" target="85mbKeTlbgZdNK4Qw56P-42" source="85mbKeTlbgZdNK4Qw56P-41">
          <mxGeometry relative="1" as="geometry">
            <mxPoint x="250" y="244.71" as="sourcePoint" />
            <mxPoint x="200" y="244.71" as="targetPoint" />
          </mxGeometry>
        </mxCell>
        <mxCell id="85mbKeTlbgZdNK4Qw56P-41" value="Capa de Logica" style="verticalAlign=top;align=left;spacingTop=8;spacingLeft=2;spacingRight=12;shape=cube;size=10;direction=south;fontStyle=4;html=1;rounded=0;shadow=0;comic=0;labelBackgroundColor=none;strokeWidth=1;fontFamily=Verdana;fontSize=12" parent="1" vertex="1">
          <mxGeometry x="40" y="470" width="740" height="240" as="geometry" />
        </mxCell>
        <mxCell id="85mbKeTlbgZdNK4Qw56P-42" value="&lt;u&gt;Gestor de&amp;nbsp;&lt;/u&gt;&lt;div&gt;&lt;u&gt;Usuarios&lt;/u&gt;&lt;/div&gt;" style="shape=component;align=left;spacingLeft=36;rounded=0;shadow=0;comic=0;labelBackgroundColor=none;strokeWidth=1;fontFamily=Verdana;fontSize=12;html=1;" parent="1" vertex="1">
          <mxGeometry x="220" y="640" width="130" height="60" as="geometry" />
        </mxCell>
        <mxCell id="85mbKeTlbgZdNK4Qw56P-43" value="" style="shape=component;align=left;spacingLeft=36;rounded=0;shadow=0;comic=0;labelBackgroundColor=none;strokeWidth=1;fontFamily=Verdana;fontSize=12;html=1;" parent="1" vertex="1">
          <mxGeometry x="240" y="680" width="510" height="170" as="geometry" />
        </mxCell>
        <mxCell id="85mbKeTlbgZdNK4Qw56P-45" value="UsuarioDAO" style="shape=component;align=left;spacingLeft=36;rounded=0;shadow=0;comic=0;labelBackgroundColor=none;strokeWidth=1;fontFamily=Verdana;fontSize=12;html=1;" parent="1" vertex="1">
          <mxGeometry x="285" y="735" width="130" height="60" as="geometry" />
        </mxCell>
        <mxCell id="85mbKeTlbgZdNK4Qw56P-46" value="ProductDAO" style="shape=component;align=left;spacingLeft=36;rounded=0;shadow=0;comic=0;labelBackgroundColor=none;strokeWidth=1;fontFamily=Verdana;fontSize=12;html=1;" parent="1" vertex="1">
          <mxGeometry x="440" y="735" width="130" height="60" as="geometry" />
        </mxCell>
        <mxCell id="85mbKeTlbgZdNK4Qw56P-47" value="PedidoDAO" style="shape=component;align=left;spacingLeft=36;rounded=0;shadow=0;comic=0;labelBackgroundColor=none;strokeWidth=1;fontFamily=Verdana;fontSize=12;html=1;" parent="1" vertex="1">
          <mxGeometry x="595" y="740" width="130" height="60" as="geometry" />
        </mxCell>
        <mxCell id="85mbKeTlbgZdNK4Qw56P-48" value="&lt;u&gt;Gestor de&amp;nbsp;&lt;/u&gt;&lt;div&gt;&lt;u&gt;Pedido&lt;/u&gt;&lt;/div&gt;" style="shape=component;align=left;spacingLeft=36;rounded=0;shadow=0;comic=0;labelBackgroundColor=none;strokeWidth=1;fontFamily=Verdana;fontSize=12;html=1;" parent="1" vertex="1">
          <mxGeometry x="417.5" y="610" width="130" height="60" as="geometry" />
        </mxCell>
        <mxCell id="85mbKeTlbgZdNK4Qw56P-49" value="&lt;u&gt;Gestor de&amp;nbsp;&lt;/u&gt;&lt;div&gt;&lt;u&gt;Catálogo&lt;/u&gt;&lt;/div&gt;" style="shape=component;align=left;spacingLeft=36;rounded=0;shadow=0;comic=0;labelBackgroundColor=none;strokeWidth=1;fontFamily=Verdana;fontSize=12;html=1;" parent="1" vertex="1">
          <mxGeometry x="567.5" y="660" width="130" height="60" as="geometry" />
        </mxCell>
        <mxCell id="85mbKeTlbgZdNK4Qw56P-50" value="RegistroUsuarios" style="swimlane;fontStyle=0;childLayout=stackLayout;horizontal=1;startSize=30;horizontalStack=0;resizeParent=1;resizeParentMax=0;resizeLast=0;collapsible=1;marginBottom=0;whiteSpace=wrap;html=1;" parent="1" vertex="1">
          <mxGeometry x="60" y="640" width="140" height="90" as="geometry" />
        </mxCell>
        <mxCell id="85mbKeTlbgZdNK4Qw56P-54" value="&lt;i&gt;email, usuario&lt;/i&gt;" style="text;strokeColor=none;fillColor=none;align=left;verticalAlign=middle;spacingLeft=4;spacingRight=4;overflow=hidden;points=[[0,0.5],[1,0.5]];portConstraint=eastwest;rotatable=0;whiteSpace=wrap;html=1;" parent="85mbKeTlbgZdNK4Qw56P-50" vertex="1">
          <mxGeometry y="30" width="140" height="30" as="geometry" />
        </mxCell>
        <mxCell id="85mbKeTlbgZdNK4Qw56P-52" value="registrarUsuario()" style="text;strokeColor=none;fillColor=none;align=left;verticalAlign=middle;spacingLeft=4;spacingRight=4;overflow=hidden;points=[[0,0.5],[1,0.5]];portConstraint=eastwest;rotatable=0;whiteSpace=wrap;html=1;" parent="85mbKeTlbgZdNK4Qw56P-50" vertex="1">
          <mxGeometry y="60" width="140" height="30" as="geometry" />
        </mxCell>
        <mxCell id="85mbKeTlbgZdNK4Qw56P-53" value="InicioDeSesión" style="swimlane;fontStyle=0;childLayout=stackLayout;horizontal=1;startSize=30;horizontalStack=0;resizeParent=1;resizeParentMax=0;resizeLast=0;collapsible=1;marginBottom=0;whiteSpace=wrap;html=1;" parent="1" vertex="1">
          <mxGeometry x="50" y="565" width="140" height="60" as="geometry" />
        </mxCell>
        <mxCell id="85mbKeTlbgZdNK4Qw56P-55" value="inicioDeSesion()" style="text;strokeColor=none;fillColor=none;align=left;verticalAlign=middle;spacingLeft=4;spacingRight=4;overflow=hidden;points=[[0,0.5],[1,0.5]];portConstraint=eastwest;rotatable=0;whiteSpace=wrap;html=1;" parent="85mbKeTlbgZdNK4Qw56P-53" vertex="1">
          <mxGeometry y="30" width="140" height="30" as="geometry" />
        </mxCell>
        <mxCell id="O3LR5pUtgpHV3YhfMxCy-15" value="IProductos" style="text;html=1;align=center;verticalAlign=middle;whiteSpace=wrap;rounded=0;fontSize=10;" vertex="1" parent="1">
          <mxGeometry x="512.5" y="-130" width="60" height="30" as="geometry" />
        </mxCell>
        <mxCell id="O3LR5pUtgpHV3YhfMxCy-16" style="edgeStyle=elbowEdgeStyle;rounded=0;html=1;labelBackgroundColor=none;startArrow=none;startFill=0;startSize=8;endArrow=none;endFill=0;endSize=16;fontFamily=Verdana;fontSize=12;entryX=0.5;entryY=0;entryDx=0;entryDy=0;exitX=0;exitY=0.5;exitDx=0;exitDy=0;" edge="1" source="O3LR5pUtgpHV3YhfMxCy-17" parent="1">
          <mxGeometry relative="1" as="geometry">
            <mxPoint x="425" y="-95" as="sourcePoint" />
            <mxPoint x="480" y="-55" as="targetPoint" />
            <Array as="points">
              <mxPoint x="480" y="-75" />
            </Array>
          </mxGeometry>
        </mxCell>
        <mxCell id="O3LR5pUtgpHV3YhfMxCy-17" value="" style="ellipse;whiteSpace=wrap;html=1;rounded=0;shadow=0;comic=0;labelBackgroundColor=none;strokeWidth=1;fontFamily=Verdana;fontSize=12;align=center;" vertex="1" parent="1">
          <mxGeometry x="537.5" y="-100" width="10" height="10" as="geometry" />
        </mxCell>
        <mxCell id="O3LR5pUtgpHV3YhfMxCy-18" style="edgeStyle=none;rounded=0;html=1;dashed=1;labelBackgroundColor=none;startArrow=none;startFill=0;startSize=8;endArrow=open;endFill=0;endSize=6;fontFamily=Verdana;fontSize=12;" edge="1" parent="1">
          <mxGeometry relative="1" as="geometry">
            <mxPoint x="547.5" y="-95.28999999999999" as="sourcePoint" />
            <mxPoint x="597.5" y="-95.28999999999999" as="targetPoint" />
          </mxGeometry>
        </mxCell>
        <mxCell id="O3LR5pUtgpHV3YhfMxCy-19" style="edgeStyle=none;rounded=0;html=1;dashed=1;labelBackgroundColor=none;startArrow=none;startFill=0;startSize=8;endArrow=open;endFill=0;endSize=6;fontFamily=Verdana;fontSize=12;" edge="1" parent="1">
          <mxGeometry relative="1" as="geometry">
            <mxPoint x="547.5" y="19.710000000000008" as="sourcePoint" />
            <mxPoint x="597.5" y="19.710000000000008" as="targetPoint" />
          </mxGeometry>
        </mxCell>
        <mxCell id="O3LR5pUtgpHV3YhfMxCy-20" value="" style="ellipse;whiteSpace=wrap;html=1;rounded=0;shadow=0;comic=0;labelBackgroundColor=none;strokeWidth=1;fontFamily=Verdana;fontSize=12;align=center;" vertex="1" parent="1">
          <mxGeometry x="537.5" y="15" width="10" height="10" as="geometry" />
        </mxCell>
        <mxCell id="O3LR5pUtgpHV3YhfMxCy-21" value="" style="endArrow=none;html=1;rounded=0;entryX=0.5;entryY=1;entryDx=0;entryDy=0;" edge="1" parent="1">
          <mxGeometry width="50" height="50" relative="1" as="geometry">
            <mxPoint x="537.5" y="20" as="sourcePoint" />
            <mxPoint x="482.5" y="5" as="targetPoint" />
            <Array as="points">
              <mxPoint x="482.5" y="20" />
            </Array>
          </mxGeometry>
        </mxCell>
        <mxCell id="O3LR5pUtgpHV3YhfMxCy-22" value="IPedidos" style="text;html=1;align=center;verticalAlign=middle;whiteSpace=wrap;rounded=0;fontSize=10;" vertex="1" parent="1">
          <mxGeometry x="512.5" y="25" width="60" height="30" as="geometry" />
        </mxCell>
        <mxCell id="O3LR5pUtgpHV3YhfMxCy-26" value="&lt;span&gt;&lt;u&gt;NotificacionesUI&lt;/u&gt;&lt;/span&gt;" style="shape=component;align=left;spacingLeft=36;rounded=0;shadow=0;comic=0;labelBackgroundColor=none;strokeWidth=1;fontFamily=Verdana;fontSize=12;html=1;" vertex="1" parent="1">
          <mxGeometry x="697.5" y="330" width="162.5" height="50" as="geometry" />
        </mxCell>
        <mxCell id="85mbKeTlbgZdNK4Qw56P-51" value="&lt;i&gt;nombre,email,password&lt;/i&gt;" style="text;strokeColor=none;fillColor=none;align=left;verticalAlign=middle;spacingLeft=4;spacingRight=4;overflow=hidden;points=[[0,0.5],[1,0.5]];portConstraint=eastwest;rotatable=0;whiteSpace=wrap;html=1;" parent="1" vertex="1">
          <mxGeometry x="80" y="580" width="140" height="30" as="geometry" />
        </mxCell>
        <mxCell id="O3LR5pUtgpHV3YhfMxCy-49" value="&lt;font&gt;SolicitarDevolucion&lt;/font&gt;" style="swimlane;fontStyle=0;childLayout=stackLayout;horizontal=1;startSize=25;horizontalStack=0;resizeParent=1;resizeParentMax=0;resizeLast=0;collapsible=1;marginBottom=0;whiteSpace=wrap;html=1;align=center;fontSize=12;" vertex="1" parent="1">
          <mxGeometry x="890" y="290" width="140" height="45" as="geometry">
            <mxRectangle x="50" y="102.5" width="120" height="30" as="alternateBounds" />
          </mxGeometry>
        </mxCell>
        <mxCell id="O3LR5pUtgpHV3YhfMxCy-51" value="&lt;font&gt;solicitarDevolucion()&lt;/font&gt;" style="text;strokeColor=none;fillColor=none;align=center;verticalAlign=middle;spacingLeft=4;spacingRight=4;overflow=hidden;points=[[0,0.5],[1,0.5]];portConstraint=eastwest;rotatable=0;whiteSpace=wrap;html=1;fontSize=12;" vertex="1" parent="O3LR5pUtgpHV3YhfMxCy-49">
          <mxGeometry y="25" width="140" height="20" as="geometry" />
        </mxCell>
        <mxCell id="O3LR5pUtgpHV3YhfMxCy-52" value="&lt;font&gt;SolicitarDevolucion&lt;/font&gt;" style="swimlane;fontStyle=0;childLayout=stackLayout;horizontal=1;startSize=25;horizontalStack=0;resizeParent=1;resizeParentMax=0;resizeLast=0;collapsible=1;marginBottom=0;whiteSpace=wrap;html=1;align=center;fontSize=12;" vertex="1" parent="1">
          <mxGeometry x="890" y="370" width="140" height="65" as="geometry">
            <mxRectangle x="50" y="102.5" width="120" height="30" as="alternateBounds" />
          </mxGeometry>
        </mxCell>
        <mxCell id="O3LR5pUtgpHV3YhfMxCy-53" value="&lt;i&gt;&lt;font&gt;idPedido, causa&lt;/font&gt;&lt;/i&gt;" style="text;strokeColor=none;fillColor=none;align=center;verticalAlign=middle;spacingLeft=4;spacingRight=4;overflow=hidden;points=[[0,0.5],[1,0.5]];portConstraint=eastwest;rotatable=0;whiteSpace=wrap;html=1;fontSize=12;" vertex="1" parent="O3LR5pUtgpHV3YhfMxCy-52">
          <mxGeometry y="25" width="140" height="20" as="geometry" />
        </mxCell>
        <mxCell id="O3LR5pUtgpHV3YhfMxCy-54" value="&lt;font&gt;solicitarDevolucion()&lt;/font&gt;" style="text;strokeColor=none;fillColor=none;align=center;verticalAlign=middle;spacingLeft=4;spacingRight=4;overflow=hidden;points=[[0,0.5],[1,0.5]];portConstraint=eastwest;rotatable=0;whiteSpace=wrap;html=1;fontSize=12;" vertex="1" parent="O3LR5pUtgpHV3YhfMxCy-52">
          <mxGeometry y="45" width="140" height="20" as="geometry" />
        </mxCell>
        <mxCell id="O3LR5pUtgpHV3YhfMxCy-68" value="&lt;u style=&quot;font-family: Verdana; text-wrap-mode: nowrap;&quot;&gt;Interfaz&lt;/u&gt;&lt;u style=&quot;color: light-dark(rgb(0, 0, 0), rgb(255, 255, 255)); font-family: Verdana; text-wrap-mode: nowrap; background-color: transparent;&quot;&gt;Usuario&lt;/u&gt;" style="swimlane;fontStyle=0;childLayout=stackLayout;horizontal=1;startSize=30;horizontalStack=0;resizeParent=1;resizeParentMax=0;resizeLast=0;collapsible=1;marginBottom=0;whiteSpace=wrap;html=1;align=center;fontSize=12;" vertex="1" parent="1">
          <mxGeometry x="95" y="140" width="155" height="240" as="geometry" />
        </mxCell>
        <mxCell id="85mbKeTlbgZdNK4Qw56P-5" value="&lt;font&gt;&lt;b&gt;registrarUsuario&lt;/b&gt;&lt;/font&gt;&lt;div&gt;&lt;font&gt;(datosUsuario)&lt;/font&gt;&lt;/div&gt;" style="text;strokeColor=none;fillColor=none;align=center;verticalAlign=middle;spacingLeft=4;spacingRight=4;overflow=hidden;points=[[0,0.5],[1,0.5]];portConstraint=eastwest;rotatable=0;whiteSpace=wrap;html=1;fontSize=12;" parent="O3LR5pUtgpHV3YhfMxCy-68" vertex="1">
          <mxGeometry y="30" width="155" height="40" as="geometry" />
        </mxCell>
        <mxCell id="O3LR5pUtgpHV3YhfMxCy-5" value="&lt;font&gt;&lt;b&gt;inicioDeSesion&lt;/b&gt;&lt;/font&gt;&lt;div&gt;&lt;font&gt;(email, contraseña)&lt;/font&gt;&lt;/div&gt;" style="text;strokeColor=none;fillColor=none;align=center;verticalAlign=middle;spacingLeft=4;spacingRight=4;overflow=hidden;points=[[0,0.5],[1,0.5]];portConstraint=eastwest;rotatable=0;whiteSpace=wrap;html=1;fontSize=12;" vertex="1" parent="O3LR5pUtgpHV3YhfMxCy-68">
          <mxGeometry y="70" width="155" height="40" as="geometry" />
        </mxCell>
        <mxCell id="O3LR5pUtgpHV3YhfMxCy-66" value="&lt;font&gt;&lt;b&gt;solicitarDevolucion&lt;/b&gt;&lt;/font&gt;&lt;div&gt;&lt;font&gt;(idPedido, causa)&lt;/font&gt;&lt;/div&gt;" style="text;strokeColor=none;fillColor=none;align=center;verticalAlign=middle;spacingLeft=4;spacingRight=4;overflow=hidden;points=[[0,0.5],[1,0.5]];portConstraint=eastwest;rotatable=0;whiteSpace=wrap;html=1;fontSize=12;" vertex="1" parent="O3LR5pUtgpHV3YhfMxCy-68">
          <mxGeometry y="110" width="155" height="40" as="geometry" />
        </mxCell>
        <mxCell id="O3LR5pUtgpHV3YhfMxCy-69" value="&lt;b&gt;realizarCompra&lt;/b&gt; (metodoPago)" style="text;strokeColor=none;fillColor=none;align=center;verticalAlign=middle;spacingLeft=4;spacingRight=4;overflow=hidden;points=[[0,0.5],[1,0.5]];portConstraint=eastwest;rotatable=0;whiteSpace=wrap;html=1;fontSize=12;" vertex="1" parent="O3LR5pUtgpHV3YhfMxCy-68">
          <mxGeometry y="150" width="155" height="30" as="geometry" />
        </mxCell>
        <mxCell id="O3LR5pUtgpHV3YhfMxCy-72" value="&lt;font&gt;&lt;b&gt;agregarAlCarrito&lt;/b&gt; (idProducto, cantidad)&lt;/font&gt;" style="text;strokeColor=none;fillColor=none;align=center;verticalAlign=middle;spacingLeft=4;spacingRight=4;overflow=hidden;points=[[0,0.5],[1,0.5]];portConstraint=eastwest;rotatable=0;whiteSpace=wrap;html=1;fontSize=12;" vertex="1" parent="O3LR5pUtgpHV3YhfMxCy-68">
          <mxGeometry y="180" width="155" height="40" as="geometry" />
        </mxCell>
        <mxCell id="O3LR5pUtgpHV3YhfMxCy-70" value="&lt;font&gt;mostrarCatalogo()&lt;/font&gt;" style="text;strokeColor=none;fillColor=none;align=center;verticalAlign=middle;spacingLeft=4;spacingRight=4;overflow=hidden;points=[[0,0.5],[1,0.5]];portConstraint=eastwest;rotatable=0;whiteSpace=wrap;html=1;fontSize=12;fontStyle=1" vertex="1" parent="O3LR5pUtgpHV3YhfMxCy-68">
          <mxGeometry y="220" width="155" height="20" as="geometry" />
        </mxCell>
        <mxCell id="O3LR5pUtgpHV3YhfMxCy-84" value="" style="shape=component;align=center;spacingLeft=36;rounded=0;shadow=0;comic=0;labelBackgroundColor=none;strokeWidth=1;fontFamily=Verdana;fontSize=12;html=1;" vertex="1" parent="1">
          <mxGeometry x="300" y="120" width="220" height="190" as="geometry" />
        </mxCell>
        <mxCell id="O3LR5pUtgpHV3YhfMxCy-74" value="&lt;u style=&quot;font-family: Verdana; text-wrap-mode: nowrap;&quot;&gt;CarritoCompra&lt;/u&gt;" style="swimlane;fontStyle=0;childLayout=stackLayout;horizontal=1;startSize=30;horizontalStack=0;resizeParent=1;resizeParentMax=0;resizeLast=0;collapsible=1;marginBottom=0;whiteSpace=wrap;html=1;align=center;fontSize=12;" vertex="1" parent="1">
          <mxGeometry x="350" y="140" width="155" height="130" as="geometry" />
        </mxCell>
        <mxCell id="O3LR5pUtgpHV3YhfMxCy-75" value="&lt;i&gt;listaProductos&lt;/i&gt;" style="text;strokeColor=none;fillColor=none;align=center;verticalAlign=middle;spacingLeft=4;spacingRight=4;overflow=hidden;points=[[0,0.5],[1,0.5]];portConstraint=eastwest;rotatable=0;whiteSpace=wrap;html=1;fontSize=12;" vertex="1" parent="O3LR5pUtgpHV3YhfMxCy-74">
          <mxGeometry y="30" width="155" height="20" as="geometry" />
        </mxCell>
        <mxCell id="O3LR5pUtgpHV3YhfMxCy-97" value="&lt;b&gt;addProducto&lt;/b&gt;&lt;div&gt;(producto, cantidad)&lt;/div&gt;" style="text;strokeColor=none;fillColor=none;align=center;verticalAlign=middle;spacingLeft=4;spacingRight=4;overflow=hidden;points=[[0,0.5],[1,0.5]];portConstraint=eastwest;rotatable=0;whiteSpace=wrap;html=1;fontSize=12;" vertex="1" parent="O3LR5pUtgpHV3YhfMxCy-74">
          <mxGeometry y="50" width="155" height="40" as="geometry" />
        </mxCell>
        <mxCell id="O3LR5pUtgpHV3YhfMxCy-57" value="&lt;font&gt;calcularTotal()&lt;/font&gt;" style="text;strokeColor=none;fillColor=none;align=center;verticalAlign=middle;spacingLeft=4;spacingRight=4;overflow=hidden;points=[[0,0.5],[1,0.5]];portConstraint=eastwest;rotatable=0;whiteSpace=wrap;html=1;fontSize=12;fontStyle=1" vertex="1" parent="O3LR5pUtgpHV3YhfMxCy-74">
          <mxGeometry y="90" width="155" height="20" as="geometry" />
        </mxCell>
        <mxCell id="O3LR5pUtgpHV3YhfMxCy-81" value="&lt;font&gt;eliminarProducto(producto)&lt;/font&gt;" style="text;strokeColor=none;fillColor=none;align=center;verticalAlign=middle;spacingLeft=4;spacingRight=4;overflow=hidden;points=[[0,0.5],[1,0.5]];portConstraint=eastwest;rotatable=0;whiteSpace=wrap;html=1;fontSize=12;fontStyle=1" vertex="1" parent="O3LR5pUtgpHV3YhfMxCy-74">
          <mxGeometry y="110" width="155" height="20" as="geometry" />
        </mxCell>
        <mxCell id="O3LR5pUtgpHV3YhfMxCy-85" value="" style="shape=component;align=center;spacingLeft=36;rounded=0;shadow=0;comic=0;labelBackgroundColor=none;strokeWidth=1;fontFamily=Verdana;fontSize=12;html=1;" vertex="1" parent="1">
          <mxGeometry x="550" y="120" width="220" height="190" as="geometry" />
        </mxCell>
        <mxCell id="O3LR5pUtgpHV3YhfMxCy-86" value="&lt;font face=&quot;Verdana&quot;&gt;&lt;span style=&quot;text-wrap-mode: nowrap;&quot;&gt;&lt;u&gt;FormularioRegistro&lt;/u&gt;&lt;/span&gt;&lt;/font&gt;" style="swimlane;fontStyle=0;childLayout=stackLayout;horizontal=1;startSize=30;horizontalStack=0;resizeParent=1;resizeParentMax=0;resizeLast=0;collapsible=1;marginBottom=0;whiteSpace=wrap;html=1;align=center;fontSize=12;" vertex="1" parent="1">
          <mxGeometry x="595" y="132.5" width="155" height="90" as="geometry" />
        </mxCell>
        <mxCell id="O3LR5pUtgpHV3YhfMxCy-39" value="&lt;font&gt;&lt;b&gt;validarDatos&lt;/b&gt;(datosUsuario)&lt;/font&gt;" style="text;strokeColor=none;fillColor=none;align=center;verticalAlign=middle;spacingLeft=4;spacingRight=4;overflow=hidden;points=[[0,0.5],[1,0.5]];portConstraint=eastwest;rotatable=0;whiteSpace=wrap;html=1;fontSize=12;" vertex="1" parent="O3LR5pUtgpHV3YhfMxCy-86">
          <mxGeometry y="30" width="155" height="20" as="geometry" />
        </mxCell>
        <mxCell id="O3LR5pUtgpHV3YhfMxCy-42" value="&lt;font&gt;&lt;b&gt;enviarConfirmacion&lt;/b&gt;&lt;/font&gt;&lt;div&gt;&lt;font&gt;(direccionEmail)&lt;/font&gt;&lt;/div&gt;" style="text;strokeColor=none;fillColor=none;align=center;verticalAlign=middle;spacingLeft=4;spacingRight=4;overflow=hidden;points=[[0,0.5],[1,0.5]];portConstraint=eastwest;rotatable=0;whiteSpace=wrap;html=1;fontSize=12;" vertex="1" parent="O3LR5pUtgpHV3YhfMxCy-86">
          <mxGeometry y="50" width="155" height="40" as="geometry" />
        </mxCell>
        <mxCell id="O3LR5pUtgpHV3YhfMxCy-93" value="" style="shape=component;align=center;spacingLeft=36;rounded=0;shadow=0;comic=0;labelBackgroundColor=none;strokeWidth=1;fontFamily=Verdana;fontSize=12;html=1;" vertex="1" parent="1">
          <mxGeometry x="790" y="120" width="230" height="190" as="geometry" />
        </mxCell>
        <mxCell id="O3LR5pUtgpHV3YhfMxCy-50" value="&lt;i&gt;&lt;font&gt;idPedido, causa&lt;/font&gt;&lt;/i&gt;" style="text;strokeColor=none;fillColor=none;align=center;verticalAlign=middle;spacingLeft=4;spacingRight=4;overflow=hidden;points=[[0,0.5],[1,0.5]];portConstraint=eastwest;rotatable=0;whiteSpace=wrap;html=1;fontSize=12;" vertex="1" parent="1">
          <mxGeometry x="510" y="380" width="140" height="20" as="geometry" />
        </mxCell>
        <mxCell id="O3LR5pUtgpHV3YhfMxCy-94" value="&lt;font face=&quot;Verdana&quot;&gt;&lt;span style=&quot;text-wrap-mode: nowrap;&quot;&gt;&lt;u&gt;NotificacionesUI&lt;/u&gt;&lt;/span&gt;&lt;/font&gt;" style="swimlane;fontStyle=0;childLayout=stackLayout;horizontal=1;startSize=30;horizontalStack=0;resizeParent=1;resizeParentMax=0;resizeLast=0;collapsible=1;marginBottom=0;whiteSpace=wrap;html=1;align=center;fontSize=12;" vertex="1" parent="1">
          <mxGeometry x="840" y="140" width="155" height="70" as="geometry" />
        </mxCell>
        <mxCell id="O3LR5pUtgpHV3YhfMxCy-95" value="mostrarNotificacion" style="text;strokeColor=none;fillColor=none;align=center;verticalAlign=middle;spacingLeft=4;spacingRight=4;overflow=hidden;points=[[0,0.5],[1,0.5]];portConstraint=eastwest;rotatable=0;whiteSpace=wrap;html=1;fontSize=12;" vertex="1" parent="O3LR5pUtgpHV3YhfMxCy-94">
          <mxGeometry y="30" width="155" height="20" as="geometry" />
        </mxCell>
        <mxCell id="O3LR5pUtgpHV3YhfMxCy-96" value="&lt;font&gt;enviarConfirmacion()&lt;/font&gt;" style="text;strokeColor=none;fillColor=none;align=center;verticalAlign=middle;spacingLeft=4;spacingRight=4;overflow=hidden;points=[[0,0.5],[1,0.5]];portConstraint=eastwest;rotatable=0;whiteSpace=wrap;html=1;fontSize=12;" vertex="1" parent="O3LR5pUtgpHV3YhfMxCy-94">
          <mxGeometry y="50" width="155" height="20" as="geometry" />
        </mxCell>
      </root>
    </mxGraphModel>
  </diagram>
</mxfile>
